PathFileType	4	(X/Y/Z)	D:\TRACE\spotREDO_2-26-24\spot_baseline_3-v60.trc
DataRate	CameraRate	NumFrames	NumMarkers	Units	OrigDataRate	OrigDataStartFrame	OrigNumFrames
100.00	100.00	      38	9	mm	100.00	5251	      7000
Frame#	Time	front left toe			Front right toe			aft left toe			aft right toe			Arm			FL body			FR body			AL Body			AR Body			
		X1	Y1	Z1	X2	Y2	Z2	X3	Y3	Z3	X4	Y4	Z4	X5	Y5	Z5	X6	Y6	Z6	X7	Y7	Z7	X8	Y8	Z8	X9	Y9	Z9	

5251	52.500	-166.73933	18.09256	-210.20280	362.03970	28.44872	-210.17754	-259.69839	21.43443	278.64651	278.85049	145.73041	295.69159	53.16544	806.70123	-417.00467	-31.70851	547.31830	-399.75592	123.28078	552.00537	-388.95865	-104.22624	556.83374	480.36530	43.71242	557.17303	493.45013	
5252	52.510	-166.85696	18.02573	-210.24992	362.19211	28.98899	-209.82764	-259.73343	21.36200	278.64017	278.04306	146.36485	293.34872	52.23860	806.60596	-418.02634	-32.53888	547.06421	-400.66501	122.82377	551.99823	-389.44595	-104.54440	557.01672	479.89008	42.89672	557.44025	492.82837	
5253	52.520	-166.94138	17.95993	-210.30710	362.07352	28.93360	-209.95850	-259.76413	21.34453	278.59671	275.53784	145.62045	290.53220	51.71571	806.42365	-418.72122	-32.83836	546.90240	-401.17145	122.39045	551.86798	-390.15860	-105.02442	557.18359	479.13358	42.41899	557.75031	492.23856	
5254	52.530	-166.94510	17.83002	-210.32047	362.09708	28.98306	-209.94099	-259.70685	21.31165	278.52512	273.14713	144.53568	288.18600	51.12997	806.14246	-419.24902	-33.09119	546.67053	-401.78622	122.12292	551.87463	-390.68021	-105.50404	557.43658	478.56616	42.22036	558.13635	491.80914	
5255	52.540	-166.94305	17.70742	-210.37709	362.03815	28.98574	-210.02550	-259.69217	21.46548	278.54034	270.87766	141.27470	285.26288	50.65226	806.06848	-419.73395	-33.41063	546.60236	-402.18774	121.83071	551.77679	-391.00317	-105.76872	557.71899	478.15918	42.32035	558.47876	491.60434	
5256	52.550	-167.00024	17.67293	-210.38329	362.05356	28.99550	-210.01634	-259.71570	21.50723	278.51883	269.21616	135.90425	282.28256	50.53156	805.92328	-420.38971	-33.72359	546.66730	-402.73523	121.47970	551.84552	-391.63477	-106.05739	558.02545	477.67847	41.89325	558.83002	490.98730	
5257	52.560	-167.05511	17.65310	-210.43829	362.05219	28.99863	-210.01610	-259.72943	21.46723	278.49802	267.97394	127.95108	279.82120	50.30647	805.91577	-420.85602	-33.89600	546.53235	-403.01276	121.05001	551.72565	-391.87076	-106.29406	558.12897	477.43713	41.72158	558.93988	490.68607	
5258	52.570	-167.03201	17.64296	-210.47337	362.07211	28.97050	-210.02843	-259.79852	21.36582	278.51599	265.79178	117.62664	277.02954	50.19088	805.98907	-421.09207	-34.19059	546.61987	-403.34982	120.81920	551.77301	-392.17944	-106.69988	558.17877	477.07364	41.03512	558.84155	490.14957	
5259	52.580	-167.15091	17.83709	-210.55437	362.01102	29.02863	-210.10005	-259.86871	21.24002	278.51227	264.54312	106.44550	275.22552	49.75473	806.33575	-421.24857	-34.45669	546.92883	-403.67294	120.65414	552.00720	-392.37302	-106.88947	558.10345	476.91901	40.81659	558.66534	489.93460	
5260	52.590	-167.20828	17.96508	-210.57837	361.93747	28.96880	-210.15210	-259.90729	21.09966	278.53217	263.49026	94.58206	274.01395	49.55616	806.64368	-421.36938	-34.62624	547.24054	-403.74677	120.51675	552.26495	-392.55029	-106.96395	557.87018	476.67795	40.59115	558.38965	489.77911	
5261	52.600	-167.20691	18.04885	-210.57228	361.75189	28.46284	-210.59819	-259.85956	21.07519	278.51056	261.76828	83.66160	273.42358	49.41504	807.03888	-421.32007	-35.06982	547.60645	-403.87152	120.14188	552.59973	-392.75446	-106.91753	557.67169	476.57275	40.61646	558.11902	489.62439	
5262	52.610	-167.23808	18.10278	-210.53964	361.73776	28.55193	-210.64442	-259.86722	21.02005	278.56067	260.58475	72.76073	272.47693	49.28763	807.46954	-421.18997	-35.45784	547.97180	-404.08023	119.83819	552.86334	-392.85922	-106.89364	557.44550	476.43658	40.59171	557.96814	489.28940	
5263	52.620	-167.17505	18.02178	-210.52544	361.64243	28.50900	-210.76372	-259.80835	20.97292	278.58264	260.01169	62.45758	272.32242	49.22933	807.66901	-421.10327	-35.59438	548.09528	-404.17099	119.72260	553.01819	-392.94989	-106.84158	557.31750	476.33789	40.59576	557.79688	489.22333	
5264	52.630	-167.21547	17.99836	-210.53090	361.70935	28.52577	-210.71468	-259.78281	20.96832	278.59610	259.38525	52.13208	271.62430	49.05893	807.69513	-421.20181	-35.66409	548.14142	-404.13779	119.64298	553.08081	-392.95395	-106.87995	557.38440	476.33466	40.59809	557.86243	489.22354	
5265	52.640	-167.12276	17.92290	-210.53975	361.66190	28.52000	-210.70216	-259.70764	21.10851	278.52286	259.12241	41.81696	271.03354	48.95303	807.56421	-421.26682	-35.66656	548.13074	-404.06323	119.60519	553.03339	-392.94910	-106.97730	557.52057	476.42914	40.59431	557.99414	489.25613	
5266	52.650	-167.15984	17.92797	-210.56435	361.74023	28.62200	-210.57814	-259.73755	21.19336	278.52548	259.22989	31.68719	270.60370	48.90755	807.47528	-421.31653	-35.63208	548.10419	-404.08981	119.65334	553.02185	-392.89798	-107.06554	557.66748	476.50406	40.46936	558.10309	489.31366	
5267	52.660	-167.14110	17.94615	-210.52222	361.71671	28.54149	-210.59122	-259.79739	21.20124	278.54214	260.30273	27.20789	268.33487	48.92623	807.45923	-421.24667	-35.56804	548.06256	-403.96054	119.67444	553.02460	-392.81525	-107.17661	557.77606	476.60419	40.44412	558.11987	489.58063	
5268	52.670	-167.07787	17.67201	-210.89365	362.18274	28.17996	-210.57414	-259.36932	21.66489	278.19852	261.07797	27.66958	269.47073	49.11784	807.42529	-421.24512	-34.85939	547.27228	-403.71436	120.22859	552.55603	-392.46109	-108.05548	558.49976	476.64334	39.79102	559.65155	490.19305	
5269	52.680	-166.80273	17.09856	-210.92882	362.62833	28.53603	-209.05681	-259.25720	21.91068	278.70364	261.92081	28.80376	271.17740	49.02140	806.90405	-421.50891	-34.43925	546.68396	-403.70969	120.51246	552.27356	-392.13187	-108.79761	559.60901	476.40659	38.58560	561.21246	489.93561	
5270	52.690	-166.86839	17.42421	-210.87132	362.49957	28.74779	-209.67938	-259.63531	21.57167	278.39206	260.93674	28.89318	270.49057	48.48738	806.22504	-421.64481	-34.18048	547.08649	-403.31546	120.70792	552.51013	-391.55533	-109.37053	560.26031	476.77481	38.07937	561.46497	490.36429	
5271	52.700	-166.90094	17.42054	-210.90869	362.23938	28.29836	-210.09879	-260.01685	21.57977	278.47116	260.95120	29.14019	270.87177	48.97983	806.25885	-421.56531	-34.40606	547.55658	-402.90683	120.53580	552.73779	-391.23807	-109.77653	560.43616	477.02353	37.77424	561.42090	490.67868	
5272	52.710	-166.96494	17.48636	-210.92256	363.20578	29.64600	-209.06360	-259.87067	21.46577	278.44885	260.88864	29.00986	270.87039	50.25471	806.94812	-420.60297	-34.78152	547.94226	-402.69980	120.28678	553.18011	-390.86716	-110.25242	560.17706	477.23535	37.17895	561.47748	490.88715	
5273	52.720	-166.97551	17.47449	-210.95204	362.97668	29.72031	-209.24268	-259.79071	21.43200	278.43573	260.78439	28.84823	270.77499	50.54898	808.01727	-419.75601	-35.26779	548.80646	-402.31409	120.10146	553.49640	-390.61996	-112.98988	561.47174	478.66504	36.80396	561.01532	491.46881	
5274	52.730	-167.03825	17.52757	-210.91354	362.15884	29.22389	-209.68297	-259.86768	21.31424	278.41745	260.74164	28.71008	270.76123	50.15213	808.62701	-419.36066	-35.28180	549.23932	-401.97974	119.74809	553.78436	-390.31238	-113.06478	561.29694	478.99026	36.99920	560.83948	492.01126	
5275	52.740	-167.05363	17.47628	-210.91212	362.09076	29.23557	-209.71346	-259.97330	21.36816	278.49695	260.77585	28.63159	270.76147	49.57905	808.90076	-418.56036	-35.52342	549.59076	-401.71368	119.41666	554.20587	-389.85400	-112.88791	560.87292	479.25705	36.35442	560.45123	492.07892	
5276	52.750	-167.08456	17.48280	-210.80243	362.08069	29.21982	-209.70827	-259.97330	21.38665	278.51334	260.87128	28.70871	270.82706	49.28833	809.12671	-417.97345	-35.71116	549.83130	-401.25739	119.37111	554.56140	-389.34222	-113.07101	560.59973	479.59222	36.31528	560.19214	492.57544	
5277	52.760	-167.09962	17.40034	-210.75572	362.86795	29.72421	-209.26709	-259.99390	21.42058	278.62256	260.84421	28.65028	270.82318	49.14895	809.09711	-417.50140	-36.40087	550.09882	-400.65897	119.17545	554.81207	-389.06390	-113.21613	560.26410	480.08453	36.47094	559.95233	493.03839	
5278	52.770	-167.02791	17.24890	-210.62419	362.13474	29.23109	-209.70706	-259.99887	21.33543	278.70752	260.94223	28.61090	270.81943	48.42586	809.28430	-416.86789	-36.68425	549.99823	-400.17529	118.67654	554.80304	-388.60629	-113.05172	560.12067	480.77396	36.67550	559.73688	493.35413	
5279	52.780	-167.07863	17.18069	-210.54196	362.74808	29.76579	-209.46474	-259.95325	21.36330	278.73212	260.92896	28.54227	270.81516	48.02561	809.46472	-416.50629	-36.77071	550.07623	-399.62881	118.23769	554.81464	-388.17093	-111.16936	560.11511	481.66898	36.75373	559.50092	493.88699	
5280	52.790	-167.10304	17.16377	-210.44859	362.00934	29.29144	-209.80507	-260.00748	21.49513	278.77161	261.01904	28.48870	270.78888	47.75631	809.57605	-415.89246	-37.10302	550.10809	-399.25821	117.82193	554.86548	-387.81497	-111.00852	560.00220	481.97980	36.86630	559.41785	494.41400	
5281	52.800	-167.16257	17.22079	-210.27365	361.88889	29.36822	-209.91685	-260.01685	21.58132	278.82681	261.12637	28.57662	270.85364	47.30948	809.64734	-415.23950	-37.64975	550.05920	-398.46899	117.58743	554.94263	-387.31522	-110.72484	559.83539	482.52332	37.11319	559.44800	494.94226	
5282	52.810	-167.27942	17.25793	-210.15550	361.87039	29.38868	-209.95526	-260.05215	21.58068	278.88330	260.97946	28.45479	270.81998	46.85435	809.63879	-414.91040	-37.95132	550.14575	-398.10965	117.23920	554.92969	-386.82013	-110.56385	559.65930	483.23016	37.22194	559.41064	495.46234	
5283	52.820	-167.34174	17.22351	-210.12668	361.78116	29.37655	-209.96365	-260.05307	21.49118	278.91052	260.94171	28.42637	270.80869	46.38287	809.73853	-414.53262	-37.99291	550.25104	-397.72372	117.00481	555.04065	-386.26135	-110.47087	559.48792	483.87656	37.07636	559.19586	495.91492	
5284	52.830	-167.28546	17.14936	-210.07253	361.79541	29.36557	-209.95171	-260.03668	21.47212	278.93027	260.93286	28.40727	270.84445	46.35458	809.68817	-413.57764	-38.37655	550.39856	-397.12671	116.72514	555.09668	-385.81720	-110.51637	559.45123	484.30893	37.46927	559.17285	496.76273	
5285	52.840	-167.26384	17.17329	-210.03949	361.90393	29.36840	-209.87949	-260.06384	21.48729	278.93750	260.97415	28.40604	270.89771	46.33628	809.86163	-413.07370	-38.52806	550.39758	-396.27222	116.66891	555.09778	-385.32104	-110.58066	559.24109	485.05630	37.71217	558.84149	497.42059	
5286	52.850	-167.15170	17.13684	-209.96918	361.88519	29.38815	-209.85112	-260.01053	21.49042	278.96317	260.95590	28.43852	270.96732	46.30468	810.06244	-412.62885	-38.46400	550.47882	-395.67651	116.67075	555.24048	-384.83102	-110.55730	559.21344	485.58005	37.85035	558.79205	497.85556	
5287	52.860	-167.14589	17.17413	-209.83882	362.02545	29.40318	-209.71440	-259.97769	21.50160	279.01596	261.07480	28.44788	270.96536	46.18066	810.11163	-411.63077	-38.52565	550.59650	-395.27539	116.58064	555.30859	-384.16257	-110.35423	559.21484	486.25909	37.90425	558.61395	498.56662	
5288	52.870	-167.16818	17.22912	-209.86046	362.65619	29.90534	-209.35512	-260.03638	21.50005	279.04977	260.90189	28.40873	271.01736	46.25269	810.12445	-411.16168	-38.57912	550.75610	-394.69626	116.54745	555.37219	-383.55112	-110.38580	559.08807	487.02969	37.29737	558.52588	498.91046	
